<svg width="40" height="40" viewBox="0 0 40 40" fill="none" xmlns="http://www.w3.org/2000/svg">
<g clip-path="url(#clip0)">
<path d="M34.1396 5.85537C26.328 -1.95393 13.6646 -1.95206 5.85535 5.85966C-1.95395 13.6714 -1.95207 26.3347 5.85965 34.144C13.6714 41.9533 26.3346 41.9514 34.1439 34.1397C37.8944 30.388 40.0008 25.3001 39.9996 19.9954C39.9986 14.6915 37.8907 9.60521 34.1396 5.85537ZM30.2889 27.8594C30.2881 27.8603 30.2872 27.8612 30.2863 27.8621V27.8554L29.2729 28.8621C27.9624 30.1892 26.0537 30.7352 24.2396 30.3021C22.4118 29.8129 20.6743 29.0341 19.0929 27.9954C17.6237 27.0565 16.2621 25.9588 15.0329 24.7221C13.9019 23.5994 12.8858 22.3665 11.9996 21.0421C11.0302 19.6169 10.2629 18.0644 9.71957 16.4287C9.09668 14.5072 9.61285 12.3986 11.0529 10.9821L12.2396 9.79545C12.5695 9.46404 13.1056 9.46287 13.4369 9.79279C13.4378 9.79365 13.4387 9.79451 13.4396 9.79545L17.1862 13.5421C17.5176 13.872 17.5188 14.4081 17.1889 14.7394C17.188 14.7403 17.1871 14.7411 17.1862 14.7421L14.9862 16.9421C14.355 17.5665 14.2756 18.5586 14.7996 19.2754C15.5953 20.3675 16.4758 21.3951 17.4329 22.3488C18.5 23.4205 19.6601 24.3954 20.8996 25.2622C21.6157 25.7617 22.5867 25.6775 23.2062 25.0622L25.3329 22.9022C25.6628 22.5708 26.1989 22.5696 26.5302 22.8995C26.5311 22.9004 26.5319 22.9012 26.5329 22.9022L30.2862 26.6622C30.6177 26.992 30.6189 27.528 30.2889 27.8594Z" fill="url(#paint0_linear)"/>
</g>
<defs>
<linearGradient id="paint0_linear" x1="39.9996" y1="-0.000366211" x2="-0.000411987" y2="39.9997" gradientUnits="userSpaceOnUse">
<stop stop-color="#76DBC8"/>
<stop offset="1" stop-color="#017BBE"/>
</linearGradient>
<clipPath id="clip0">
<rect width="40" height="40" fill="white"/>
</clipPath>
</defs>
</svg>
