<svg width="40" height="40" viewBox="0 0 40 40" fill="none" xmlns="http://www.w3.org/2000/svg">
<path d="M28.0692 12.8572H11.9308L20 19.7737L28.0692 12.8572Z" fill="url(#paint0_linear)"/>
<path d="M20 21.4285C19.8294 21.4285 19.6645 21.3675 19.5351 21.2562L10.7143 13.6956V27.1428H29.2857V13.6956L20.4649 21.2562C20.3355 21.3675 20.1705 21.4285 20 21.4285Z" fill="url(#paint1_linear)"/>
<path d="M20 0C8.95438 0 0 8.95438 0 20C0 31.0456 8.95438 40 20 40C31.0456 40 40 31.0456 40 20C39.9874 8.95961 31.0404 0.0125558 20 0ZM30.7143 27.8571C30.7143 28.2516 30.3945 28.5714 30 28.5714H10C9.60554 28.5714 9.28571 28.2516 9.28571 27.8571V12.1429C9.28571 11.7484 9.60554 11.4286 10 11.4286H30C30.3945 11.4286 30.7143 11.7484 30.7143 12.1429V27.8571Z" fill="url(#paint2_linear)"/>
<defs>
<linearGradient id="paint0_linear" x1="28.0692" y1="12.8572" x2="23.0607" y2="24.5437" gradientUnits="userSpaceOnUse">
<stop stop-color="#76DBC8"/>
<stop offset="1" stop-color="#017BBE"/>
</linearGradient>
<linearGradient id="paint1_linear" x1="29.2857" y1="13.6956" x2="16.5101" y2="31.3394" gradientUnits="userSpaceOnUse">
<stop stop-color="#76DBC8"/>
<stop offset="1" stop-color="#017BBE"/>
</linearGradient>
<linearGradient id="paint2_linear" x1="40" y1="0" x2="0" y2="40" gradientUnits="userSpaceOnUse">
<stop stop-color="#76DBC8"/>
<stop offset="1" stop-color="#017BBE"/>
</linearGradient>
</defs>
</svg>
