<svg width="20" height="20" viewBox="0 0 20 20" fill="none" xmlns="http://www.w3.org/2000/svg">
<path d="M1.83837 17.5827H18.1616C19.1753 17.5827 20 16.7579 20 15.7441V4.25568C20 3.24192 19.1753 2.41724 18.1616 2.41724H1.83837C0.82468 2.41724 0 3.242 0 4.25568V15.7441C0 16.7579 0.82468 17.5827 1.83837 17.5827ZM1.19727 4.25568C1.19727 3.90161 1.48469 3.61451 1.83837 3.61451H18.1616C18.5155 3.61451 18.8027 3.90161 18.8027 4.25568V15.7441C18.8027 16.0983 18.5154 16.3854 18.1616 16.3854H1.83837C1.48461 16.3854 1.19727 16.0983 1.19727 15.7441V4.25568ZM3.5709 15.5387H2.37363V4.51198L9.8505 9.36611C9.93846 9.42318 10.0615 9.42326 10.1497 9.36595L17.6264 4.51198V15.5387H16.4292V6.71671L10.8015 10.3703C10.5626 10.5252 10.2855 10.607 10 10.607C9.71449 10.607 9.43736 10.5252 9.19871 10.3704L3.5709 6.71671V15.5387Z" fill="url(#paint0_linear)"/>
<defs>
<linearGradient id="paint0_linear" x1="20" y1="2.41724" x2="5.39723" y2="21.6752" gradientUnits="userSpaceOnUse">
<stop stop-color="#76DBC8"/>
<stop offset="1" stop-color="#017BBE"/>
</linearGradient>
</defs>
</svg>
