<svg width="20" height="20" viewBox="0 0 20 20" fill="none" xmlns="http://www.w3.org/2000/svg">
<g clip-path="url(#clip0)">
<path d="M19.9804 5.88005C19.9336 4.81738 19.7617 4.0868 19.5156 3.45374C19.2616 2.78176 18.8709 2.18014 18.359 1.68002C17.8589 1.1721 17.2533 0.777435 16.5891 0.527447C15.9524 0.281274 15.2256 0.109427 14.163 0.0625732C13.0923 0.0117516 12.7525 0 10.0371 0C7.32172 0 6.98184 0.0117516 5.91519 0.0586052C4.85252 0.105459 4.12194 0.277459 3.48903 0.523479C2.8169 0.777435 2.21528 1.16814 1.71516 1.68002C1.20724 2.18014 0.812728 2.78573 0.562588 3.44992C0.316415 4.0868 0.144568 4.81341 0.0977142 5.87609C0.0468925 6.9467 0.035141 7.28658 0.035141 10.002C0.035141 12.7173 0.0468925 13.0572 0.0937462 14.1239C0.1406 15.1865 0.3126 15.9171 0.558772 16.5502C0.812728 17.2221 1.20724 17.8238 1.71516 18.3239C2.21528 18.8318 2.82087 19.2265 3.48506 19.4765C4.12194 19.7226 4.84855 19.8945 5.91138 19.9413C6.97787 19.9883 7.3179 19.9999 10.0333 19.9999C12.7487 19.9999 13.0885 19.9883 14.1552 19.9413C15.2179 19.8945 15.9484 19.7226 16.5813 19.4765C17.9254 18.9568 18.9881 17.8941 19.5078 16.5502C19.7538 15.9133 19.9258 15.1865 19.9727 14.1239C20.0195 13.0572 20.0313 12.7173 20.0313 10.002C20.0313 7.28658 20.0273 6.9467 19.9804 5.88005ZM18.1794 14.0457C18.1364 15.0225 17.9723 15.5499 17.8356 15.9015C17.4995 16.7728 16.808 17.4643 15.9367 17.8004C15.585 17.9372 15.0538 18.1012 14.0808 18.1441C13.026 18.1911 12.7096 18.2027 10.0411 18.2027C7.37254 18.2027 7.0522 18.1911 6.00112 18.1441C5.02436 18.1012 4.49692 17.9372 4.14529 17.8004C3.7117 17.6402 3.31703 17.3862 2.99669 17.0541C2.66459 16.7298 2.41063 16.3391 2.25039 15.9055C2.11364 15.5539 1.94958 15.0225 1.90669 14.0497C1.85969 12.9948 1.84809 12.6783 1.84809 10.0097C1.84809 7.34122 1.85969 7.02087 1.90669 5.96995C1.94958 4.99319 2.11364 4.46575 2.25039 4.11412C2.41063 3.68038 2.66459 3.28586 3.00065 2.96536C3.32481 2.63327 3.71552 2.37931 4.14926 2.21921C4.50089 2.08247 5.0323 1.9184 6.00509 1.87537C7.05998 1.82851 7.37651 1.81676 10.0449 1.81676C12.7174 1.81676 13.0337 1.82851 14.0848 1.87537C15.0616 1.9184 15.589 2.08247 15.9406 2.21921C16.3742 2.37931 16.7689 2.63327 17.0892 2.96536C17.4213 3.28967 17.6753 3.68038 17.8356 4.11412C17.9723 4.46575 18.1364 4.99701 18.1794 5.96995C18.2263 7.02484 18.238 7.34122 18.238 10.0097C18.238 12.6783 18.2263 12.9908 18.1794 14.0457Z" fill="url(#paint0_linear)"/>
<path d="M10.0371 4.86426C7.20067 4.86426 4.89935 7.16543 4.89935 10.002C4.89935 12.8385 7.20067 15.1397 10.0371 15.1397C12.8736 15.1397 15.1748 12.8385 15.1748 10.002C15.1748 7.16543 12.8736 4.86426 10.0371 4.86426ZM10.0371 13.3347C8.19696 13.3347 6.70436 11.8422 6.70436 10.002C6.70436 8.16172 8.19696 6.66927 10.0371 6.66927C11.8773 6.66927 13.3698 8.16172 13.3698 10.002C13.3698 11.8422 11.8773 13.3347 10.0371 13.3347Z" fill="url(#paint1_linear)"/>
<path d="M16.5775 4.66109C16.5775 5.32346 16.0405 5.86052 15.3779 5.86052C14.7156 5.86052 14.1785 5.32346 14.1785 4.66109C14.1785 3.99858 14.7156 3.46167 15.3779 3.46167C16.0405 3.46167 16.5775 3.99858 16.5775 4.66109Z" fill="url(#paint2_linear)"/>
</g>
<defs>
<linearGradient id="paint0_linear" x1="20.0313" y1="0" x2="0.0313209" y2="19.9961" gradientUnits="userSpaceOnUse">
<stop stop-color="#76DBC8"/>
<stop offset="1" stop-color="#017BBE"/>
</linearGradient>
<linearGradient id="paint1_linear" x1="15.1748" y1="4.86426" x2="4.89935" y2="15.1397" gradientUnits="userSpaceOnUse">
<stop stop-color="#76DBC8"/>
<stop offset="1" stop-color="#017BBE"/>
</linearGradient>
<linearGradient id="paint2_linear" x1="16.5775" y1="3.46167" x2="14.1787" y2="5.86067" gradientUnits="userSpaceOnUse">
<stop stop-color="#76DBC8"/>
<stop offset="1" stop-color="#017BBE"/>
</linearGradient>
<clipPath id="clip0">
<rect width="20" height="20" fill="white"/>
</clipPath>
</defs>
</svg>
