<svg width="40" height="40" viewBox="0 0 40 40" fill="none" xmlns="http://www.w3.org/2000/svg">
<path d="M20 0C8.95414 0 0 8.95445 0 20C0 31.0462 8.95414 40 20 40C31.0459 40 40 31.0462 40 20C40 8.95445 31.0459 0 20 0ZM20 10C21.3808 10 22.5 11.1194 22.5 12.5C22.5 13.8813 21.3808 15 20 15C18.6192 15 17.5 13.8813 17.5 12.5C17.5 11.1194 18.6192 10 20 10ZM23.75 30H16.25C15.5597 30 15 29.4409 15 28.75C15 28.0597 15.5597 27.5 16.25 27.5H17.5V20H16.25C15.5597 20 15 19.4409 15 18.75C15 18.0597 15.5597 17.5 16.25 17.5H21.25C21.9403 17.5 22.5 18.0597 22.5 18.75V27.5H23.75C24.4403 27.5 25 28.0597 25 28.75C25 29.4409 24.4403 30 23.75 30Z" fill="url(#paint0_linear)"/>
<defs>
<linearGradient id="paint0_linear" x1="40" y1="0" x2="0" y2="40" gradientUnits="userSpaceOnUse">
<stop stop-color="#76DBC8"/>
<stop offset="1" stop-color="#017BBE"/>
</linearGradient>
</defs>
</svg>
