<svg width="40" height="40" viewBox="0 0 40 40" fill="none" xmlns="http://www.w3.org/2000/svg">
<g clip-path="url(#clip0)">
<path d="M6.47477 24.3064C6.74172 24.4851 7.04359 24.5705 7.34227 24.5705C7.84617 24.5705 8.34094 24.327 8.64227 23.8768C11.167 20.104 15.3876 17.8516 19.9322 17.8516C24.4634 17.8516 28.677 20.0937 31.2035 23.8492C31.6853 24.5652 32.6562 24.7552 33.3721 24.2734C34.0881 23.7917 34.278 22.8208 33.7963 22.1048C31.7777 19.1044 28.8834 16.8904 25.5761 15.706C27.5595 14.0858 28.8281 11.622 28.8281 8.86719C28.8281 3.9993 24.8679 0.0390625 20 0.0390625C15.1321 0.0390625 11.1719 3.9993 11.1719 8.86719C11.1719 11.6022 12.422 14.0505 14.3809 15.6712C11.0219 16.8512 8.08414 19.092 6.04516 22.1388C5.56523 22.856 5.75758 23.8265 6.47477 24.3064ZM20 3.16406C23.1447 3.16406 25.7031 5.7225 25.7031 8.86719C25.7031 12.0119 23.1447 14.5703 20 14.5703C16.8553 14.5703 14.2969 12.0119 14.2969 8.86719C14.2969 5.7225 16.8553 3.16406 20 3.16406ZM26.2311 27.7055L23.9017 29.3859C23.5552 29.6359 23.4101 30.0791 23.5425 30.4836L24.4805 33.2025C24.5202 33.3236 24.5354 33.4419 24.5303 33.5547C24.4971 34.2849 23.5819 34.7845 22.9106 34.3002L20.5813 32.6194C20.408 32.4944 20.2041 32.4319 20.0001 32.4319C19.7961 32.4319 19.5921 32.4944 19.4188 32.6194L17.0895 34.3002C16.4183 34.7845 15.4987 34.2849 15.4696 33.5547C15.4652 33.4419 15.4808 33.3235 15.5204 33.2025L16.4576 30.4836C16.59 30.0791 16.4449 29.6359 16.0984 29.3859L13.769 27.7055C12.994 27.1464 13.3923 25.8203 14.3502 25.8203H17.2295C17.6579 25.8203 18.0376 25.6554 18.1699 25.2509L19.0596 22.5144C19.2077 22.0621 19.6038 21.8359 20.0001 21.8359C20.3963 21.8359 20.7925 22.0621 20.9405 22.5144L21.8302 25.2509C21.9627 25.6554 22.3423 25.8203 22.7707 25.8203H25.6499C26.6078 25.8203 27.0061 27.1464 26.2311 27.7055ZM39.5905 33.1742L37.2611 34.8546C36.9145 35.1046 36.7695 35.5478 36.9019 35.9523L37.8399 38.6713C37.8795 38.7923 37.8948 38.9106 37.8897 39.0234C37.8565 39.7537 36.9413 40.2532 36.27 39.769L33.9407 38.0881C33.7674 37.9631 33.5634 37.9006 33.3595 37.9006C33.1555 37.9006 32.9515 37.9631 32.7782 38.0881L30.4489 39.769C29.7777 40.2532 28.858 39.7537 28.829 39.0234C28.8245 38.9106 28.8402 38.7923 28.8798 38.6713L29.817 35.9523C29.9494 35.5478 29.8043 35.1046 29.4577 34.8546L27.1284 33.1742C26.3534 32.6152 26.7516 31.2891 27.7096 31.2891H30.5888C31.0173 31.2891 31.397 31.1241 31.5293 30.7196L32.419 27.9831C32.567 27.5309 32.9632 27.3047 33.3595 27.3047C33.7557 27.3047 34.1519 27.5309 34.2999 27.9831L35.1896 30.7196C35.322 31.1241 35.7016 31.2891 36.1301 31.2891H39.0093C39.9672 31.2891 40.3655 32.6152 39.5905 33.1742ZM12.8717 33.1742L10.5423 34.8546C10.1958 35.1046 10.0507 35.5478 10.1831 35.9523L11.1212 38.6713C11.1608 38.7923 11.176 38.9106 11.1709 39.0234C11.1377 39.7537 10.2225 40.2532 9.55125 39.769L7.22188 38.0881C7.04859 37.9631 6.84461 37.9006 6.64062 37.9006C6.43664 37.9006 6.23266 37.9631 6.05937 38.0881L3.73008 39.769C3.05883 40.2532 2.13922 39.7537 2.11016 39.0234C2.1057 38.9106 2.12133 38.7923 2.16094 38.6713L3.09812 35.9523C3.23055 35.5478 3.08547 35.1046 2.73891 34.8546L0.409531 33.1742C-0.365469 32.6152 0.0328124 31.2891 0.990781 31.2891H3.87C4.29844 31.2891 4.67813 31.1241 4.81047 30.7196L5.70016 27.9831C5.8482 27.5309 6.24437 27.3047 6.64062 27.3047C7.03688 27.3047 7.43305 27.5309 7.58109 27.9831L8.47078 30.7196C8.6032 31.1241 8.98281 31.2891 9.41125 31.2891H12.2905C13.2484 31.2891 13.6467 32.6152 12.8717 33.1742Z" fill="url(#paint0_linear)"/>
</g>
<defs>
<linearGradient id="paint0_linear" x1="40" y1="0.0390625" x2="0.0782051" y2="40.039" gradientUnits="userSpaceOnUse">
<stop stop-color="#76DBC8"/>
<stop offset="1" stop-color="#017BBE"/>
</linearGradient>
<clipPath id="clip0">
<rect width="40" height="40" fill="white"/>
</clipPath>
</defs>
</svg>
